# xmcd
#
# Track frame offsets:
#	150
#	14553
#	28362
#	44254
#	64698
#	82313
#	102354
#	117364
#	138945
#	158453
#	177240
#	187552
#
# Disc length: 2793 seconds
#
# Revision: 0
# Processed by: cddbd v1.4PL0 Copyright (c) Steve Scherf et al.
# Submitted via: dBpowerAMP V4.0
#
DISCID=9a0ae70c
DTITLE=The Fantatic Pickin' On Series - Bluegrass Sampler
DYEAR=2002
DGENRE=Bluegrass
TTITLE0=Paint It Black
TTITLE1=Paperback Writer
TTITLE2=Wish You Were Here
TTITLE3=Born To Run
TTITLE4=D'Yer Mak'er
TTITLE5=That Smell
TTITLE6=Purple Haze
TTITLE7=I Still Haven't Found What I'm Looking For
TTITLE8=Rift
TTITLE9=Casey Jones
TTITLE10=Tripping Billies
TTITLE11=Hotel California
EXTD=Tha Fantastic Pickin' On Series Bluegrass Sampler
EXTT0=
EXTT1=
EXTT2=
EXTT3=
EXTT4=
EXTT5=
EXTT6=
EXTT7=
EXTT8=
EXTT9=
EXTT10=
EXTT11=
PLAYORDER=
